<svg version="1.1" xmlns="http://www.w3.org/2000/svg" xmlns:xlink="http://www.w3.org/1999/xlink" x="0px" y="0px" viewBox="0 0 100 100" style="enable-background:new 0 0 100 100;" xml:space="preserve" fill="#fff">
<g>
	<circle cx="15.5" cy="9.5" r="0.5"/>
	<path d="M15.5,9C15.2,9,15,9.2,15,9.5s0.2,0.5,0.5,0.5S16,9.8,16,9.5S15.8,9,15.5,9L15.5,9z"/>
	<animate accumulate="none" additive="replace" attributeName="opacity" begin="3s" calcMode="linear" dur="5s" fill="remove" repeatCount="indefinite" restart="always" values="0;1;0"/>
</g>
<g>
	<circle cx="27" cy="18" r="0.5"/>
	<path d="M27,17c-0.6,0-1,0.4-1,1s0.4,1,1,1s1-0.4,1-1S27.6,17,27,17L27,17z"/>
	<animate accumulate="none" additive="replace" attributeName="opacity" begin="4s" calcMode="linear" dur="5s" fill="remove" repeatCount="indefinite" restart="always" values="0;1;0"/>
</g>
<g>
	<circle cx="75" cy="3" r="0.5"/>
	<path d="M75,2c-0.6,0-1,0.4-1,1s0.4,1,1,1s1-0.4,1-1S75.6,2,75,2L75,2z"/>
	<animate accumulate="none" additive="replace" attributeName="opacity" begin="2.3s" calcMode="linear" dur="5s" fill="remove" repeatCount="indefinite" restart="always" values="0;1;0"/>
</g>
<g>
	<circle cx="79.5" cy="18.5" r="0.5"/>
	<path d="M79.5,18c-0.3,0-0.5,0.2-0.5,0.5s0.2,0.5,0.5,0.5s0.5-0.2,0.5-0.5S79.8,18,79.5,18L79.5,18z"/>
	<animate accumulate="none" additive="replace" attributeName="opacity" begin="1s" calcMode="linear" dur="5s" fill="remove" repeatCount="indefinite" restart="always" values="0;1;0"/>
</g>
<g>
	<circle cx="57.5" cy="10.5" r="0.5"/>
	<path d="M57.5,10c-0.3,0-0.5,0.2-0.5,0.5s0.2,0.5,0.5,0.5s0.5-0.2,0.5-0.5S57.8,10,57.5,10L57.5,10z"/>
	<animate accumulate="none" additive="replace" attributeName="opacity" begin="2.3s" calcMode="linear" dur="5s" fill="remove" repeatCount="indefinite" restart="always" values="0;1;0"/>
</g>
<g>
	<circle cx="67.5" cy="33.5" r="0.5"/>
	<path d="M67.5,33c-0.3,0-0.5,0.2-0.5,0.5s0.2,0.5,0.5,0.5s0.5-0.2,0.5-0.5S67.8,33,67.5,33L67.5,33z"/>
	<animate accumulate="none" additive="replace" attributeName="opacity" begin="1.2s" calcMode="linear" dur="5s" fill="remove" repeatCount="indefinite" restart="always" values="0;1;0"/>
</g>
<g>
	<circle cx="15.5" cy="72.5" r="0.5"/>
	<path d="M15.5,72c-0.3,0-0.5,0.2-0.5,0.5s0.2,0.5,0.5,0.5s0.5-0.2,0.5-0.5S15.8,72,15.5,72L15.5,72z"/>
	<animate accumulate="none" additive="replace" attributeName="opacity" begin="4s" calcMode="linear" dur="5s" fill="remove" repeatCount="indefinite" restart="always" values="0;1;0"/>
</g>
<g>
	<circle cx="22.5" cy="42.5" r="0.5"/>
	<path d="M22.5,42c-0.3,0-0.5,0.2-0.5,0.5s0.2,0.5,0.5,0.5s0.5-0.2,0.5-0.5S22.8,42,22.5,42L22.5,42z"/>
	<animate accumulate="none" additive="replace" attributeName="opacity" begin="0s" calcMode="linear" dur="5s" fill="remove" repeatCount="indefinite" restart="always" values="0;1;0"/>
</g>
<g>
	<circle cx="86.5" cy="43.5" r="0.5"/>
	<path d="M86.5,43c-0.3,0-0.5,0.2-0.5,0.5s0.2,0.5,0.5,0.5s0.5-0.2,0.5-0.5S86.8,43,86.5,43L86.5,43z"/>
    <animate accumulate="none" additive="replace" attributeName="opacity" begin="4.3s" calcMode="linear" dur="5s" fill="remove" repeatCount="indefinite" restart="always" values="0;1;0"/>
</g>
<g>
	<circle cx="47.5" cy="59.5" r="0.5"/>
	<path d="M47.5,59c-0.3,0-0.5,0.2-0.5,0.5s0.2,0.5,0.5,0.5s0.5-0.2,0.5-0.5S47.8,59,47.5,59L47.5,59z"/>
	<animate accumulate="none" additive="replace" attributeName="opacity" begin="0s" calcMode="linear" dur="5s" fill="remove" repeatCount="indefinite" restart="always" values="0;1;0"/>
</g>
<g>
	<circle cx="58.5" cy="47.5" r="0.5"/>
	<path d="M58.5,47c-0.3,0-0.5,0.2-0.5,0.5s0.2,0.5,0.5,0.5s0.5-0.2,0.5-0.5S58.8,47,58.5,47L58.5,47z"/>
	<animate accumulate="none" additive="replace" attributeName="opacity" begin="2.3s" calcMode="linear" dur="5s" fill="remove" repeatCount="indefinite" restart="always" values="0;1;0"/>
</g>
<g>
	<circle cx="7.5" cy="93.5" r="0.5"/>
	<path d="M7.5,93C7.2,93,7,93.2,7,93.5S7.2,94,7.5,94S8,93.8,8,93.5S7.8,93,7.5,93L7.5,93z"/>
	<animate accumulate="none" additive="replace" attributeName="opacity" begin="1.2s" calcMode="linear" dur="5s" fill="remove" repeatCount="indefinite" restart="always" values="0;1;0"/>
</g>
<g>
	<circle cx="34.5" cy="90.5" r="0.5"/>
	<path d="M34.5,90c-0.3,0-0.5,0.2-0.5,0.5s0.2,0.5,0.5,0.5s0.5-0.2,0.5-0.5S34.8,90,34.5,90L34.5,90z"/>
	<animate accumulate="none" additive="replace" attributeName="opacity" begin="3s" calcMode="linear" dur="5s" fill="remove" repeatCount="indefinite" restart="always" values="0;1;0"/>
</g>
<g>
	<circle cx="37" cy="52" r="0.5"/>
	<path d="M37,51c-0.6,0-1,0.4-1,1s0.4,1,1,1s1-0.4,1-1S37.6,51,37,51L37,51z"/>
	<animate accumulate="none" additive="replace" attributeName="opacity" begin="0s" calcMode="linear" dur="5s" fill="remove" repeatCount="indefinite" restart="always" values="0;1;0"/>
</g>
<g>
	<circle cx="8.5" cy="48.5" r="0.5"/>
	<path d="M8.5,48C8.2,48,8,48.2,8,48.5S8.2,49,8.5,49S9,48.8,9,48.5S8.8,48,8.5,48L8.5,48z"/>
	<animate accumulate="none" additive="replace" attributeName="opacity" begin="4s" calcMode="linear" dur="5s" fill="remove" repeatCount="indefinite" restart="always" values="0;1;0"/>
</g>
<g>
	<circle cx="40.5" cy="25.5" r="0.5"/>
	<path d="M40.5,25c-0.3,0-0.5,0.2-0.5,0.5s0.2,0.5,0.5,0.5s0.5-0.2,0.5-0.5S40.8,25,40.5,25L40.5,25z"/>
	<animate accumulate="none" additive="replace" attributeName="opacity" begin="1s" calcMode="linear" dur="5s" fill="remove" repeatCount="indefinite" restart="always" values="0;1;0"/>
</g>
<g>
	<circle cx="85.5" cy="88.5" r="0.5"/>
	<path d="M85.5,88c-0.3,0-0.5,0.2-0.5,0.5s0.2,0.5,0.5,0.5s0.5-0.2,0.5-0.5S85.8,88,85.5,88L85.5,88z"/>
	<animate accumulate="none" additive="replace" attributeName="opacity" begin="1s" calcMode="linear" dur="5s" fill="remove" repeatCount="indefinite" restart="always" values="0;1;0"/>
</g>
<g>
	<circle cx="55.5" cy="79.5" r="0.5"/>
	<path d="M55.5,79c-0.3,0-0.5,0.2-0.5,0.5s0.2,0.5,0.5,0.5s0.5-0.2,0.5-0.5S55.8,79,55.5,79L55.5,79z"/>
	<animate accumulate="none" additive="replace" attributeName="opacity" begin="3s" calcMode="linear" dur="5s" fill="remove" repeatCount="indefinite" restart="always" values="0;1;0"/>
</g>
<g>
	<circle cx="94.5" cy="64.5" r="0.5"/>
	<path d="M94.5,64c-0.3,0-0.5,0.2-0.5,0.5s0.2,0.5,0.5,0.5s0.5-0.2,0.5-0.5S94.8,64,94.5,64L94.5,64z"/>
	<animate accumulate="none" additive="replace" attributeName="opacity" begin="2.3s" calcMode="linear" dur="5s" fill="remove" repeatCount="indefinite" restart="always" values="0;1;0"/>
</g>
<g>
	<circle cx="64" cy="97" r="0.5"/>
	<path d="M64,96c-0.6,0-1,0.4-1,1s0.4,1,1,1c0.6,0,1-0.4,1-1S64.6,96,64,96L64,96z"/>
	<animate accumulate="none" additive="replace" attributeName="opacity" begin="3s" calcMode="linear" dur="5s" fill="remove" repeatCount="indefinite" restart="always" values="0;1;0"/>
</g>
</svg>
